{
	"asset":{
		"version":"2.0",
		"generator":"Created using the official Cinema 4D glTF Exporter 1.000x290161"
	},
	"scenes":[{
		"nodes":[0,
		10,
		13,
		14]
	}],
	"nodes":[{
		"name":"camera",
		"translation":[-6.883168697357178,
		2.978353500366211,
		-3.6811017990112306],
		"rotation":[0.0,
		0.0,
		0.0,
		-1.0],
		"scale":[1.0,
		1.0,
		1.0],
		"children":[1,
		2,
		3,
		4,
		5,
		6,
		7,
		8,
		9]
	},
	{
		"name":"camera_h_11_01",
		"translation":[23.006999969482423,
		0.0,
		19.313251495361329],
		"rotation":[0.0,
		0.0,
		0.0,
		-1.0],
		"scale":[1.0,
		1.0,
		1.0],
		"mesh":0
	},
	{
		"name":"camera_h_11_02",
		"translation":[19.12654685974121,
		0.0,
		19.313251495361329],
		"rotation":[0.0,
		0.0,
		0.0,
		-1.0],
		"scale":[1.0,
		1.0,
		1.0],
		"mesh":1
	},
	{
		"name":"camera_h_11_03",
		"translation":[19.12654685974121,
		0.0,
		4.740687370300293],
		"rotation":[0.0,
		0.0,
		0.0,
		-1.0],
		"scale":[1.0,
		1.0,
		1.0],
		"mesh":2
	},
	{
		"name":"camera_h_11_04",
		"translation":[9.178478240966797,
		0.0,
		2.637636661529541],
		"rotation":[0.0,
		0.0,
		0.0,
		-1.0],
		"scale":[1.0,
		1.0,
		1.0],
		"mesh":3
	},
	{
		"name":"camera_h_11_05",
		"translation":[8.416796684265137,
		0.0,
		-36.4323844909668],
		"rotation":[0.0,
		0.0,
		0.0,
		-1.0],
		"scale":[1.0,
		1.0,
		1.0],
		"mesh":4
	},
	{
		"name":"camera_h_11_06",
		"translation":[9.178478240966797,
		0.0,
		-38.92918014526367],
		"rotation":[0.0,
		0.0,
		0.0,
		-1.0],
		"scale":[1.0,
		1.0,
		1.0],
		"mesh":5
	},
	{
		"name":"camera_h_11_07",
		"translation":[-15.380147933959961,
		0.0,
		12.117419242858887],
		"rotation":[0.0,
		0.0,
		0.0,
		-1.0],
		"scale":[1.0,
		1.0,
		1.0],
		"mesh":6
	},
	{
		"name":"camera_h_11_08",
		"translation":[-33.204925537109378,
		0.0,
		5.528325080871582],
		"rotation":[0.0,
		0.0,
		0.0,
		-1.0],
		"scale":[1.0,
		1.0,
		1.0],
		"mesh":7
	},
	{
		"name":"camera_h_11_09",
		"translation":[-39.44877624511719,
		0.0,
		11.710990905761719],
		"rotation":[0.0,
		0.0,
		0.0,
		-1.0],
		"scale":[1.0,
		1.0,
		1.0],
		"mesh":8
	},
	{
		"name":"door",
		"translation":[2.145786762237549,
		0.1666666716337204,
		-21.784011840820314],
		"rotation":[0.0,
		0.0,
		0.0,
		-1.0],
		"scale":[1.0,
		1.0,
		1.0],
		"children":[11,
		12]
	},
	{
		"name":"door_11_02",
		"translation":[-0.28964218497276308,
		0.0,
		21.973560333251954],
		"rotation":[0.0,
		0.0,
		0.0,
		-1.0],
		"scale":[1.0,
		1.0,
		1.0],
		"mesh":9
	},
	{
		"name":"door_11_01",
		"translation":[0.28964218497276308,
		0.0,
		-21.973560333251954],
		"rotation":[0.0,
		0.0,
		0.0,
		-1.0],
		"scale":[1.0,
		1.0,
		1.0],
		"mesh":10
	},
	{
		"name":"floor_11",
		"translation":[-47.564571380615237,
		-0.3333333432674408,
		17.819278717041017],
		"rotation":[0.0,
		0.0,
		0.0,
		-1.0],
		"scale":[1.0,
		1.0,
		1.0],
		"mesh":11
	},
	{
		"name":"wall_11",
		"translation":[-47.564571380615237,
		0.1666666716337204,
		17.819278717041017],
		"rotation":[0.0,
		0.0,
		0.0,
		-1.0],
		"scale":[1.0,
		1.0,
		1.0],
		"mesh":12
	}],
	"meshes":[{
		"primitives":[{
			"attributes":{
				"POSITION":1,
				"NORMAL":2,
				"TEXCOORD_0":3
			},
			"indices":0,
			"material":0
		}]
	},
	{
		"primitives":[{
			"attributes":{
				"POSITION":5,
				"NORMAL":6,
				"TEXCOORD_0":7
			},
			"indices":4,
			"material":0
		}]
	},
	{
		"primitives":[{
			"attributes":{
				"POSITION":9,
				"NORMAL":10,
				"TEXCOORD_0":11
			},
			"indices":8,
			"material":0
		}]
	},
	{
		"primitives":[{
			"attributes":{
				"POSITION":13,
				"NORMAL":14,
				"TEXCOORD_0":15
			},
			"indices":12,
			"material":0
		}]
	},
	{
		"primitives":[{
			"attributes":{
				"POSITION":17,
				"NORMAL":18,
				"TEXCOORD_0":19
			},
			"indices":16,
			"material":0
		}]
	},
	{
		"primitives":[{
			"attributes":{
				"POSITION":21,
				"NORMAL":22,
				"TEXCOORD_0":23
			},
			"indices":20,
			"material":0
		}]
	},
	{
		"primitives":[{
			"attributes":{
				"POSITION":25,
				"NORMAL":26,
				"TEXCOORD_0":27
			},
			"indices":24,
			"material":0
		}]
	},
	{
		"primitives":[{
			"attributes":{
				"POSITION":29,
				"NORMAL":30,
				"TEXCOORD_0":31
			},
			"indices":28,
			"material":0
		}]
	},
	{
		"primitives":[{
			"attributes":{
				"POSITION":33,
				"NORMAL":34,
				"TEXCOORD_0":35
			},
			"indices":32,
			"material":0
		}]
	},
	{
		"primitives":[{
			"attributes":{
				"POSITION":37,
				"NORMAL":38,
				"TEXCOORD_0":39
			},
			"indices":36,
			"material":1
		}]
	},
	{
		"primitives":[{
			"attributes":{
				"POSITION":41,
				"NORMAL":42,
				"TEXCOORD_0":43
			},
			"indices":40,
			"material":1
		}]
	},
	{
		"primitives":[{
			"attributes":{
				"POSITION":45,
				"NORMAL":46,
				"TEXCOORD_0":47
			},
			"indices":44,
			"material":2
		}]
	},
	{
		"primitives":[{
			"attributes":{
				"POSITION":49,
				"NORMAL":50,
				"TEXCOORD_0":51
			},
			"indices":48,
			"material":3
		}]
	}],
	"accessors":[{
		"bufferView":0,
		"type":"SCALAR",
		"componentType":5123,
		"count":1932,
		"byteOffset":0,
		"min":[0],
		"max":[513]
	},
	{
		"bufferView":1,
		"type":"VEC3",
		"componentType":5126,
		"count":514,
		"byteOffset":0,
		"min":[-0.33846351504325869,
		-0.20197032392024995,
		-0.33848875761032107],
		"max":[0.33846351504325869,
		0.20197032392024995,
		0.33848875761032107]
	},
	{
		"bufferView":1,
		"type":"VEC3",
		"componentType":5126,
		"count":514,
		"byteOffset":12,
		"min":[-0.9997290968894959,
		-1.0,
		-0.9998037219047546],
		"max":[0.9997290968894959,
		0.9999253749847412,
		0.9998037219047546]
	},
	{
		"bufferView":1,
		"type":"VEC2",
		"componentType":5126,
		"count":514,
		"byteOffset":24,
		"min":[0.0,
		0.0],
		"max":[1.0,
		0.5]
	},
	{
		"bufferView":2,
		"type":"SCALAR",
		"componentType":5123,
		"count":1932,
		"byteOffset":0,
		"min":[0],
		"max":[513]
	},
	{
		"bufferView":3,
		"type":"VEC3",
		"componentType":5126,
		"count":514,
		"byteOffset":0,
		"min":[-0.33846351504325869,
		-0.20197032392024995,
		-0.33848875761032107],
		"max":[0.33846351504325869,
		0.20197032392024995,
		0.33848875761032107]
	},
	{
		"bufferView":3,
		"type":"VEC3",
		"componentType":5126,
		"count":514,
		"byteOffset":12,
		"min":[-0.9997290968894959,
		-1.0,
		-0.9998037219047546],
		"max":[0.9997290968894959,
		0.9999253749847412,
		0.9998037219047546]
	},
	{
		"bufferView":3,
		"type":"VEC2",
		"componentType":5126,
		"count":514,
		"byteOffset":24,
		"min":[0.0,
		0.0],
		"max":[1.0,
		0.5]
	},
	{
		"bufferView":4,
		"type":"SCALAR",
		"componentType":5123,
		"count":1932,
		"byteOffset":0,
		"min":[0],
		"max":[513]
	},
	{
		"bufferView":5,
		"type":"VEC3",
		"componentType":5126,
		"count":514,
		"byteOffset":0,
		"min":[-0.33846351504325869,
		-0.20197032392024995,
		-0.33848875761032107],
		"max":[0.33846351504325869,
		0.20197032392024995,
		0.33848875761032107]
	},
	{
		"bufferView":5,
		"type":"VEC3",
		"componentType":5126,
		"count":514,
		"byteOffset":12,
		"min":[-0.9997290968894959,
		-1.0,
		-0.9998037219047546],
		"max":[0.9997290968894959,
		0.9999253749847412,
		0.9998037219047546]
	},
	{
		"bufferView":5,
		"type":"VEC2",
		"componentType":5126,
		"count":514,
		"byteOffset":24,
		"min":[0.0,
		0.0],
		"max":[1.0,
		0.5]
	},
	{
		"bufferView":6,
		"type":"SCALAR",
		"componentType":5123,
		"count":1932,
		"byteOffset":0,
		"min":[0],
		"max":[513]
	},
	{
		"bufferView":7,
		"type":"VEC3",
		"componentType":5126,
		"count":514,
		"byteOffset":0,
		"min":[-0.33846351504325869,
		-0.20197032392024995,
		-0.33848875761032107],
		"max":[0.33846351504325869,
		0.20197032392024995,
		0.33848875761032107]
	},
	{
		"bufferView":7,
		"type":"VEC3",
		"componentType":5126,
		"count":514,
		"byteOffset":12,
		"min":[-0.9997290968894959,
		-1.0,
		-0.9998037219047546],
		"max":[0.9997290968894959,
		0.9999253749847412,
		0.9998037219047546]
	},
	{
		"bufferView":7,
		"type":"VEC2",
		"componentType":5126,
		"count":514,
		"byteOffset":24,
		"min":[0.0,
		0.0],
		"max":[1.0,
		0.5]
	},
	{
		"bufferView":8,
		"type":"SCALAR",
		"componentType":5123,
		"count":1932,
		"byteOffset":0,
		"min":[0],
		"max":[513]
	},
	{
		"bufferView":9,
		"type":"VEC3",
		"componentType":5126,
		"count":514,
		"byteOffset":0,
		"min":[-0.33846351504325869,
		-0.20197032392024995,
		-0.33848875761032107],
		"max":[0.33846351504325869,
		0.20197032392024995,
		0.33848875761032107]
	},
	{
		"bufferView":9,
		"type":"VEC3",
		"componentType":5126,
		"count":514,
		"byteOffset":12,
		"min":[-0.9997290968894959,
		-1.0,
		-0.9998037219047546],
		"max":[0.9997290968894959,
		0.9999253749847412,
		0.9998037219047546]
	},
	{
		"bufferView":9,
		"type":"VEC2",
		"componentType":5126,
		"count":514,
		"byteOffset":24,
		"min":[0.0,
		0.0],
		"max":[1.0,
		0.5]
	},
	{
		"bufferView":10,
		"type":"SCALAR",
		"componentType":5123,
		"count":1932,
		"byteOffset":0,
		"min":[0],
		"max":[513]
	},
	{
		"bufferView":11,
		"type":"VEC3",
		"componentType":5126,
		"count":514,
		"byteOffset":0,
		"min":[-0.33846351504325869,
		-0.20197032392024995,
		-0.33848875761032107],
		"max":[0.33846351504325869,
		0.20197032392024995,
		0.33848875761032107]
	},
	{
		"bufferView":11,
		"type":"VEC3",
		"componentType":5126,
		"count":514,
		"byteOffset":12,
		"min":[-0.9997290968894959,
		-1.0,
		-0.9998037219047546],
		"max":[0.9997290968894959,
		0.9999253749847412,
		0.9998037219047546]
	},
	{
		"bufferView":11,
		"type":"VEC2",
		"componentType":5126,
		"count":514,
		"byteOffset":24,
		"min":[0.0,
		0.0],
		"max":[1.0,
		0.5]
	},
	{
		"bufferView":12,
		"type":"SCALAR",
		"componentType":5123,
		"count":1932,
		"byteOffset":0,
		"min":[0],
		"max":[513]
	},
	{
		"bufferView":13,
		"type":"VEC3",
		"componentType":5126,
		"count":514,
		"byteOffset":0,
		"min":[-0.33846351504325869,
		-0.20197032392024995,
		-0.33848875761032107],
		"max":[0.33846351504325869,
		0.20197032392024995,
		0.33848875761032107]
	},
	{
		"bufferView":13,
		"type":"VEC3",
		"componentType":5126,
		"count":514,
		"byteOffset":12,
		"min":[-0.9997290968894959,
		-1.0,
		-0.9998037219047546],
		"max":[0.9997290968894959,
		0.9999253749847412,
		0.9998037219047546]
	},
	{
		"bufferView":13,
		"type":"VEC2",
		"componentType":5126,
		"count":514,
		"byteOffset":24,
		"min":[0.0,
		0.0],
		"max":[1.0,
		0.5]
	},
	{
		"bufferView":14,
		"type":"SCALAR",
		"componentType":5123,
		"count":1932,
		"byteOffset":0,
		"min":[0],
		"max":[513]
	},
	{
		"bufferView":15,
		"type":"VEC3",
		"componentType":5126,
		"count":514,
		"byteOffset":0,
		"min":[-0.33846351504325869,
		-0.20197032392024995,
		-0.33848875761032107],
		"max":[0.33846351504325869,
		0.20197032392024995,
		0.33848875761032107]
	},
	{
		"bufferView":15,
		"type":"VEC3",
		"componentType":5126,
		"count":514,
		"byteOffset":12,
		"min":[-0.9997290968894959,
		-1.0,
		-0.9998037219047546],
		"max":[0.9997290968894959,
		0.9999253749847412,
		0.9998037219047546]
	},
	{
		"bufferView":15,
		"type":"VEC2",
		"componentType":5126,
		"count":514,
		"byteOffset":24,
		"min":[0.0,
		0.0],
		"max":[1.0,
		0.5]
	},
	{
		"bufferView":16,
		"type":"SCALAR",
		"componentType":5123,
		"count":1932,
		"byteOffset":0,
		"min":[0],
		"max":[513]
	},
	{
		"bufferView":17,
		"type":"VEC3",
		"componentType":5126,
		"count":514,
		"byteOffset":0,
		"min":[-0.33846351504325869,
		-0.20197032392024995,
		-0.33848875761032107],
		"max":[0.33846351504325869,
		0.20197032392024995,
		0.33848875761032107]
	},
	{
		"bufferView":17,
		"type":"VEC3",
		"componentType":5126,
		"count":514,
		"byteOffset":12,
		"min":[-0.9997290968894959,
		-1.0,
		-0.9998037219047546],
		"max":[0.9997290968894959,
		0.9999253749847412,
		0.9998037219047546]
	},
	{
		"bufferView":17,
		"type":"VEC2",
		"componentType":5126,
		"count":514,
		"byteOffset":24,
		"min":[0.0,
		0.0],
		"max":[1.0,
		0.5]
	},
	{
		"bufferView":18,
		"type":"SCALAR",
		"componentType":5123,
		"count":36,
		"byteOffset":0,
		"min":[0],
		"max":[23]
	},
	{
		"bufferView":19,
		"type":"VEC3",
		"componentType":5126,
		"count":24,
		"byteOffset":0,
		"min":[5.4143355651768007e-14,
		9.02389263509778e-17,
		-0.15000000596046449],
		"max":[1.5,
		2.799999952316284,
		1.218225552986757e-13]
	},
	{
		"bufferView":19,
		"type":"VEC3",
		"componentType":5126,
		"count":24,
		"byteOffset":12,
		"min":[-1.0,
		-1.0,
		-1.0],
		"max":[1.0,
		1.0,
		1.0]
	},
	{
		"bufferView":19,
		"type":"VEC2",
		"componentType":5126,
		"count":24,
		"byteOffset":24,
		"min":[0.0,
		1.0],
		"max":[0.0,
		1.0]
	},
	{
		"bufferView":20,
		"type":"SCALAR",
		"componentType":5123,
		"count":36,
		"byteOffset":0,
		"min":[0],
		"max":[23]
	},
	{
		"bufferView":21,
		"type":"VEC3",
		"componentType":5126,
		"count":24,
		"byteOffset":0,
		"min":[-1.8047785217256003e-14,
		9.02389263509778e-17,
		-0.15000000596046449],
		"max":[1.5,
		2.799999952316284,
		5.4143355651768007e-14]
	},
	{
		"bufferView":21,
		"type":"VEC3",
		"componentType":5126,
		"count":24,
		"byteOffset":12,
		"min":[-1.0,
		-1.0,
		-1.0],
		"max":[1.0,
		1.0,
		1.0]
	},
	{
		"bufferView":21,
		"type":"VEC2",
		"componentType":5126,
		"count":24,
		"byteOffset":24,
		"min":[0.0,
		1.0],
		"max":[0.0,
		1.0]
	},
	{
		"bufferView":22,
		"type":"SCALAR",
		"componentType":5123,
		"count":120,
		"byteOffset":0,
		"min":[0],
		"max":[67]
	},
	{
		"bufferView":23,
		"type":"VEC3",
		"componentType":5126,
		"count":68,
		"byteOffset":0,
		"min":[0.0,
		-8.459899320588751e-16,
		-68.19999694824219],
		"max":[69.5,
		0.5,
		-2.0213519714377266e-14]
	},
	{
		"bufferView":23,
		"type":"VEC3",
		"componentType":5126,
		"count":68,
		"byteOffset":12,
		"min":[-1.0,
		-1.0,
		-1.0],
		"max":[1.0,
		1.0,
		1.0]
	},
	{
		"bufferView":23,
		"type":"VEC2",
		"componentType":5126,
		"count":68,
		"byteOffset":24,
		"min":[0.0,
		1.0],
		"max":[0.0,
		1.0]
	},
	{
		"bufferView":24,
		"type":"SCALAR",
		"componentType":5123,
		"count":7824,
		"byteOffset":0,
		"min":[0],
		"max":[4021]
	},
	{
		"bufferView":25,
		"type":"VEC3",
		"componentType":5126,
		"count":4022,
		"byteOffset":0,
		"min":[0.0,
		0.0,
		-68.19999694824219],
		"max":[69.5,
		3.0,
		0.0]
	},
	{
		"bufferView":25,
		"type":"VEC3",
		"componentType":5126,
		"count":4022,
		"byteOffset":12,
		"min":[-1.0,
		-1.0,
		-1.0],
		"max":[1.0,
		1.0,
		1.0]
	},
	{
		"bufferView":25,
		"type":"VEC2",
		"componentType":5126,
		"count":4022,
		"byteOffset":24,
		"min":[0.0,
		1.0],
		"max":[0.0,
		1.0]
	}],
	"bufferViews":[{
		"buffer":0,
		"byteOffset":0,
		"byteLength":3864,
		"target":34963
	},
	{
		"buffer":0,
		"byteOffset":3864,
		"byteLength":16448,
		"target":34962,
		"byteStride":32
	},
	{
		"buffer":1,
		"byteOffset":0,
		"byteLength":3864,
		"target":34963
	},
	{
		"buffer":1,
		"byteOffset":3864,
		"byteLength":16448,
		"target":34962,
		"byteStride":32
	},
	{
		"buffer":2,
		"byteOffset":0,
		"byteLength":3864,
		"target":34963
	},
	{
		"buffer":2,
		"byteOffset":3864,
		"byteLength":16448,
		"target":34962,
		"byteStride":32
	},
	{
		"buffer":3,
		"byteOffset":0,
		"byteLength":3864,
		"target":34963
	},
	{
		"buffer":3,
		"byteOffset":3864,
		"byteLength":16448,
		"target":34962,
		"byteStride":32
	},
	{
		"buffer":4,
		"byteOffset":0,
		"byteLength":3864,
		"target":34963
	},
	{
		"buffer":4,
		"byteOffset":3864,
		"byteLength":16448,
		"target":34962,
		"byteStride":32
	},
	{
		"buffer":5,
		"byteOffset":0,
		"byteLength":3864,
		"target":34963
	},
	{
		"buffer":5,
		"byteOffset":3864,
		"byteLength":16448,
		"target":34962,
		"byteStride":32
	},
	{
		"buffer":6,
		"byteOffset":0,
		"byteLength":3864,
		"target":34963
	},
	{
		"buffer":6,
		"byteOffset":3864,
		"byteLength":16448,
		"target":34962,
		"byteStride":32
	},
	{
		"buffer":7,
		"byteOffset":0,
		"byteLength":3864,
		"target":34963
	},
	{
		"buffer":7,
		"byteOffset":3864,
		"byteLength":16448,
		"target":34962,
		"byteStride":32
	},
	{
		"buffer":8,
		"byteOffset":0,
		"byteLength":3864,
		"target":34963
	},
	{
		"buffer":8,
		"byteOffset":3864,
		"byteLength":16448,
		"target":34962,
		"byteStride":32
	},
	{
		"buffer":9,
		"byteOffset":0,
		"byteLength":72,
		"target":34963
	},
	{
		"buffer":9,
		"byteOffset":72,
		"byteLength":768,
		"target":34962,
		"byteStride":32
	},
	{
		"buffer":10,
		"byteOffset":0,
		"byteLength":72,
		"target":34963
	},
	{
		"buffer":10,
		"byteOffset":72,
		"byteLength":768,
		"target":34962,
		"byteStride":32
	},
	{
		"buffer":11,
		"byteOffset":0,
		"byteLength":240,
		"target":34963
	},
	{
		"buffer":11,
		"byteOffset":240,
		"byteLength":2176,
		"target":34962,
		"byteStride":32
	},
	{
		"buffer":12,
		"byteOffset":0,
		"byteLength":15648,
		"target":34963
	},
	{
		"buffer":12,
		"byteOffset":15648,
		"byteLength":128704,
		"target":34962,
		"byteStride":32
	}],
	"buffers":[{
		"uri":"data:application/octet-stream;base64,",
		"byteLength":20312
	},
	{
		"uri":"data:application/octet-stream;base64,",
		"byteLength":20312
	},
	{
		"uri":"data:application/octet-stream;base64,",
		"byteLength":20312
	},
	{
		"uri":"data:application/octet-stream;base64,",
		"byteLength":20312
	},
	{
		"uri":"data:application/octet-stream;base64,",
		"byteLength":20312
	},
	{
		"uri":"data:application/octet-stream;base64,",
		"byteLength":20312
	},
	{
		"uri":"data:application/octet-stream;base64,",
		"byteLength":20312
	},
	{
		"uri":"data:application/octet-stream;base64,",
		"byteLength":20312
	},
	{
		"uri":"data:application/octet-stream;base64,",
		"byteLength":20312
	},
	{
		"uri":"data:application/octet-stream;base64,",
		"byteLength":840
	},
	{
		"uri":"data:application/octet-stream;base64,",
		"byteLength":840
	},
	{
		"uri":"data:application/octet-stream;base64,",
		"byteLength":2416
	},
	{
		"uri":"data:application/octet-stream;base64,",
		"byteLength":144352
	}],
	"materials":[{
		"pbrMetallicRoughness":{
			"baseColorFactor":[0.2,
			0.2,
			0.2,
			1.0],
			"metallicFactor":0.0,
			"roughnessFactor":0.5
		},
		"emissiveFactor":[0.0,
		0.0,
		0.0],
		"alphaMode":"OPAQUE",
		"doubleSided":false,
		"name":"camera"
	},
	{
		"pbrMetallicRoughness":{
			"baseColorFactor":[0.14520000000000003,
			0.32699333333333327,
			0.44,
			1.0],
			"metallicFactor":0.0,
			"roughnessFactor":0.5
		},
		"emissiveFactor":[0.0,
		0.0,
		0.0],
		"alphaMode":"OPAQUE",
		"doubleSided":false,
		"name":"door"
	},
	{
		"pbrMetallicRoughness":{
			"baseColorFactor":[0.96,
			0.8143999999999996,
			0.6239999999999999,
			1.0],
			"metallicFactor":0.0,
			"roughnessFactor":0.5
		},
		"emissiveFactor":[0.0,
		0.0,
		0.0],
		"alphaMode":"OPAQUE",
		"doubleSided":false,
		"name":"floor"
	},
	{
		"pbrMetallicRoughness":{
			"baseColorFactor":[1.0,
			1.0,
			1.0,
			1.0],
			"metallicFactor":0.0,
			"roughnessFactor":0.5
		},
		"emissiveFactor":[0.0,
		0.0,
		0.0],
		"alphaMode":"OPAQUE",
		"doubleSided":false,
		"name":"wall"
	}]
}